<svg width="80" height="80" viewBox="0 0 80 80" fill="none" xmlns="http://www.w3.org/2000/svg">
  <defs>
    <linearGradient id="fingerprint-gradient-light" x1="0%" y1="0%" x2="100%" y2="100%">
      <stop offset="0%" style="stop-color:#1D4ED8;stop-opacity:1" />
      <stop offset="50%" style="stop-color:#4338CA;stop-opacity:1" />
      <stop offset="100%" style="stop-color:#6B21A8;stop-opacity:1" />
    </linearGradient>
    <linearGradient id="fingerprint-gradient-dark" x1="0%" y1="0%" x2="100%" y2="100%">
      <stop offset="0%" style="stop-color:#60A5FA;stop-opacity:1" />
      <stop offset="50%" style="stop-color:#8B5CF6;stop-opacity:1" />
      <stop offset="100%" style="stop-color:#A855F7;stop-opacity:1" />
    </linearGradient>
  </defs>

  <!-- Light mode version (default) -->
  <g class="light-mode">
    <!-- Outer fingerprint ring -->
    <path d="M40 8C22.3 8 8 22.3 8 40C8 57.7 22.3 72 40 72C57.7 72 72 57.7 72 40C72 22.3 57.7 8 40 8Z"
          stroke="url(#fingerprint-gradient-light)"
          stroke-width="2"
          fill="none"/>

    <!-- Middle fingerprint ring -->
    <path d="M40 15C26.2 15 15 26.2 15 40C15 53.8 26.2 65 40 65C53.8 65 65 53.8 65 40C65 26.2 53.8 15 40 15Z"
          stroke="url(#fingerprint-gradient-light)"
          stroke-width="1.5"
          fill="none"/>

    <!-- Inner fingerprint ring -->
    <path d="M40 22C30.1 22 22 30.1 22 40C22 49.9 30.1 58 40 58C49.9 58 58 49.9 58 40C58 30.1 49.9 22 40 22Z"
          stroke="url(#fingerprint-gradient-light)"
          stroke-width="1.5"
          fill="none"/>

    <!-- Central core -->
    <path d="M40 30C34.5 30 30 34.5 30 40C30 45.5 34.5 50 40 50C45.5 50 50 45.5 50 40C50 34.5 45.5 30 40 30Z"
          stroke="url(#fingerprint-gradient-light)"
          stroke-width="1.5"
          fill="none"/>

    <!-- Fingerprint lines/ridges -->
    <path d="M25 35C25 30 29 25 35 23"
          stroke="url(#fingerprint-gradient-light)"
          stroke-width="1"
          fill="none"
          stroke-linecap="round"/>

    <path d="M55 45C55 50 51 55 45 57"
          stroke="url(#fingerprint-gradient-light)"
          stroke-width="1"
          fill="none"
          stroke-linecap="round"/>

    <path d="M18 45C18 40 20 35 25 32"
          stroke="url(#fingerprint-gradient-light)"
          stroke-width="1"
          fill="none"
          stroke-linecap="round"/>

    <path d="M62 35C62 40 60 45 55 48"
          stroke="url(#fingerprint-gradient-light)"
          stroke-width="1"
          fill="none"
          stroke-linecap="round"/>

    <!-- Scanner effect lines -->
    <rect x="5" y="38" width="70" height="1" fill="url(#fingerprint-gradient-light)" opacity="0.6"/>
    <rect x="5" y="42" width="70" height="1" fill="url(#fingerprint-gradient-light)" opacity="0.4"/>

    <!-- Corner brackets for scanner effect -->
    <path d="M10 10 L10 20 L20 20"
          stroke="url(#fingerprint-gradient-light)"
          stroke-width="2"
          fill="none"
          stroke-linecap="round"
          stroke-linejoin="round"/>

    <path d="M70 10 L70 20 L60 20"
          stroke="url(#fingerprint-gradient-light)"
          stroke-width="2"
          fill="none"
          stroke-linecap="round"
          stroke-linejoin="round"/>

    <path d="M10 70 L10 60 L20 60"
          stroke="url(#fingerprint-gradient-light)"
          stroke-width="2"
          fill="none"
          stroke-linecap="round"
          stroke-linejoin="round"/>

    <path d="M70 70 L70 60 L60 60"
          stroke="url(#fingerprint-gradient-light)"
          stroke-width="2"
          fill="none"
          stroke-linecap="round"
          stroke-linejoin="round"/>
  </g>
</svg>
